<svg class="navbar-logo" height="60" viewBox="0 0 178.376 60" width="178.376"
  xmlns="http://www.w3.org/2000/svg">
  <g data-name="Group 120">
    <g data-name="Group 118">
      <path
        d="M77.775 21.017c2.538-.053 3.462-.211 4.678-.9a3.186 3.186 0 0 0 1.506-2.934c0-2.484-1.533-3.621-4.836-3.621-1.057 0-1.348.212-1.348.952Zm12.2 9.065h-2.1a4.324 4.324 0 0 1-3.406-1.463c-1.616-2.05-5.207-6.677-5.207-6.677l-1.48.053v5.206c0 1.9.343 2.246 2.378 2.378v.5h-7.32v-.5c1.982-.158 2.246-.475 2.246-2.669V15.468c0-1.877-.264-2.167-2.246-2.379v-.5h7.294c2.484 0 4.678.688 5.682 1.771a4.185 4.185 0 0 1 1.031 2.881 3.876 3.876 0 0 1-1.348 3.039 6.732 6.732 0 0 1-3.436 1.374s3.445 4.254 5.444 6.686a3.8 3.8 0 0 0 2.471 1.242Z"
        data-name="Path 535" fill="#0d223c"></path>
      <path
        d="M96.568 21.916c-.344-2.3-.978-3.039-2.59-3.039s-2.511.978-2.8 3.039Zm3.2 4.017c-1.111 2.854-3.092 4.414-5.6 4.414-3.039 0-4.942-2.273-4.942-5.92a6.742 6.742 0 0 1 1.956-5.127 5.294 5.294 0 0 1 3.568-1.374 4.338 4.338 0 0 1 3.382 1.506 5.851 5.851 0 0 1 1.136 3.33h-8.14a7.894 7.894 0 0 0 .714 3.488 3.67 3.67 0 0 0 3.409 2.273c1.692 0 2.828-.766 4.1-2.775Z"
        data-name="Path 536" fill="#0d223c"></path>
      <path
        d="M107.723 21.788c-.608-2.353-1.4-3.251-2.907-3.251a1.834 1.834 0 0 0-2.034 1.8 2.073 2.073 0 0 0 1.136 1.8l2.854 1.691c1.586.951 2.22 1.823 2.22 3.145a3.594 3.594 0 0 1-3.727 3.382 10.3 10.3 0 0 1-1.928-.264 5.167 5.167 0 0 0-1.216-.211.585.585 0 0 0-.607.317h-.344v-4.122h.423a5.728 5.728 0 0 0 1.136 2.774 2.921 2.921 0 0 0 2.219.925c1.348 0 2.194-.74 2.194-1.9a2.255 2.255 0 0 0-1.374-1.983l-1.532-.872c-2.246-1.268-3.092-2.325-3.092-3.805a3.308 3.308 0 0 1 3.594-3.25 5.239 5.239 0 0 1 1.85.317 1.873 1.873 0 0 0 .713.185c.106 0 .132-.026.37-.211l.053-.053h.29l.105 3.595Z"
        data-name="Path 537" fill="#0d223c"></path>
      <path
        d="M117.82 21.916c-.344-2.3-.978-3.039-2.59-3.039s-2.511.978-2.8 3.039Zm3.2 4.017c-1.111 2.854-3.092 4.414-5.6 4.414-3.039 0-4.942-2.273-4.942-5.92a6.742 6.742 0 0 1 1.956-5.127 5.294 5.294 0 0 1 3.568-1.374 4.338 4.338 0 0 1 3.382 1.506 5.852 5.852 0 0 1 1.136 3.33h-8.14a7.9 7.9 0 0 0 .714 3.488 3.67 3.67 0 0 0 3.409 2.273c1.692 0 2.828-.766 4.1-2.775Z"
        data-name="Path 538" fill="#0d223c"></path>
      <path
        d="M121.469 19.353a43.95 43.95 0 0 0 3.912-1.427l.131.053v2.432c1.3-1.877 2.062-2.484 3.172-2.484a1.319 1.319 0 0 1 1.453 1.4c0 .74-.4 1.19-1.03 1.19a1.6 1.6 0 0 1-1.057-.528 1.25 1.25 0 0 0-.687-.4c-.714 0-1.85 1.321-1.85 2.167v5.946c0 1.507.45 1.9 2.247 1.982v.4h-6.343v-.4c1.692-.318 1.876-.5 1.876-1.824v-6.607c0-1.162-.238-1.586-.9-1.586a4.01 4.01 0 0 0-.925.106Z"
        data-name="Path 539" fill="#0d223c"></path>
      <path
        d="M142.639 18.588c-.793.079-.951.265-1.718 2.061l-3.383 8.483c-.4.978-.581 1.322-.739 1.322s-.317-.211-.476-.687c-.079-.211-.158-.4-.211-.555l-3.171-7.585c-1.216-2.722-1.4-2.987-2.4-3.039v-.4h5.18v.4c-.925.079-1.216.265-1.216.74a2.744 2.744 0 0 0 .238.978l2.7 6.765 2.617-6.845a2.124 2.124 0 0 0 .159-.793c0-.5-.4-.766-1.242-.845v-.4h3.673Z"
        data-name="Path 540" fill="#0d223c"></path>
      <path
        d="M149.566 23c-3.2 1.163-4.281 2.114-4.281 3.673v.106a1.866 1.866 0 0 0 1.665 2.035 4.194 4.194 0 0 0 1.929-.607c.555-.318.687-.555.687-1.374Zm4.1 6.025c-.924 1-1.479 1.322-2.378 1.322-1.084 0-1.56-.555-1.692-1.929-1.611 1.374-2.7 1.929-3.858 1.929a2.693 2.693 0 0 1-2.775-2.828 3.207 3.207 0 0 1 .952-2.3c1.136-1 1.586-1.216 5.656-2.854v-1.612c0-1.427-.714-2.194-2.009-2.194-1.057 0-1.9.582-1.9 1.3a2.94 2.94 0 0 0 .08.634 3.75 3.75 0 0 1 .053.422 1.188 1.188 0 0 1-1.202 1.107 1.162 1.162 0 0 1-1.136-1.136c0-1.665 1.956-2.96 4.44-2.96a3.585 3.585 0 0 1 3.276 1.453 4.99 4.99 0 0 1 .529 2.775v5.154c0 1.163.185 1.532.793 1.532a1.715 1.715 0 0 0 1.162-.5Z"
        data-name="Path 541" fill="#0d223c"></path>
      <path
        d="M160.191 19.037h-2.669v7.558c0 1.665.4 2.378 1.374 2.378a2 2 0 0 0 1.586-.925l.343.29a3.631 3.631 0 0 1-3.171 2.009c-1.559 0-2.352-1.136-2.352-3.357v-7.954h-1.4a.2.2 0 0 1-.105-.185c0-.132.159-.318.449-.5a9.575 9.575 0 0 0 2.563-2.828c.186-.238.344-.476.529-.739.158 0 .185.079.185.343v3.065h2.669Z"
        data-name="Path 542" fill="#0d223c"></path>
      <path
        d="M165.558 13.38a1.348 1.348 0 1 1-1.374-1.347 1.36 1.36 0 0 1 1.374 1.347m-.026 4.625v9.382c0 1.9.211 2.167 1.956 2.3v.4h-6.264v-.4c1.824-.106 2.088-.4 2.088-2.3v-6.131c0-1.163-.238-1.586-.873-1.586a5.878 5.878 0 0 0-.9.08l-.211.026v-.4l4.1-1.453Z"
        data-name="Path 543" fill="#0d223c"></path>
      <path
        d="M178.376 26.198a8.864 8.864 0 0 1-2.008 2.908 4.776 4.776 0 0 1-3.2 1.242c-2.933 0-5.021-2.459-5.021-5.894a6.581 6.581 0 0 1 2.061-5.048 5.743 5.743 0 0 1 3.726-1.48c2.22 0 4.07 1.242 4.07 2.722a1.21 1.21 0 0 1-1.269 1.11c-.555 0-1.031-.476-1.242-1.216l-.159-.581c-.264-.978-.607-1.269-1.559-1.269-2.14 0-3.594 1.876-3.594 4.6 0 3.039 1.691 5.154 4.1 5.154 1.506 0 2.457-.635 3.726-2.484Z"
        data-name="Path 544" fill="#0d223c"></path>
      <path d="M86.634 36.896h1.142v7.622h4.544v.962h-5.686Z" data-name="Path 545" fill="#0096c2"></path>
      <path d="M93.572 39.264h1.021v6.215h-1.021Zm1.021-1.117h-1.021v-1.251h1.021Z"
        data-name="Path 546" fill="#0096c2"></path>
      <path d="M99.343 45.479h-1.094l-2.308-6.215h1.14l1.743 5.181h.024l1.7-5.181h1.07Z"
        data-name="Path 547" fill="#0096c2"></path>
      <path
        d="M107.228 41.781a1.788 1.788 0 0 0-1.792-1.755 1.77 1.77 0 0 0-1.779 1.755Zm.985 1.731a2.5 2.5 0 0 1-2.656 2.116c-1.983 0-2.921-1.371-2.981-3.269a2.992 2.992 0 0 1 2.921-3.234c2.2 0 2.873 2.055 2.813 3.558h-4.652a1.831 1.831 0 0 0 1.935 2.044 1.5 1.5 0 0 0 1.611-1.214Z"
        data-name="Path 548" fill="#0096c2"></path>
      <path
        d="M115.416 46.309c-.469 1.214-.89 1.658-1.8 1.658a2.033 2.033 0 0 1-.709-.108v-.938a2.1 2.1 0 0 0 .6.144.883.883 0 0 0 .841-.565l.421-1.058-2.465-6.179h1.154l1.816 5.085h.023l1.743-5.085h1.082Z"
        data-name="Path 549" fill="#0096c2"></path>
      <path
        d="M122.027 44.722c1.07 0 1.935-.842 1.935-2.344s-.866-2.356-1.935-2.356-1.935.842-1.935 2.356.865 2.344 1.935 2.344m0-5.6a3.261 3.261 0 1 1-3.017 3.258 2.949 2.949 0 0 1 3.017-3.258"
        data-name="Path 550" fill="#0096c2"></path>
      <path
        d="M131.752 45.479h-.962v-.985h-.024a2.162 2.162 0 0 1-2.019 1.129c-1.635 0-2.14-.938-2.14-2.272v-4.087h1.022v4.208a1.17 1.17 0 0 0 1.262 1.25 1.747 1.747 0 0 0 1.84-1.947v-3.51h1.022Z"
        data-name="Path 551" fill="#0096c2"></path>
      <path
        d="M133.616 39.265h.962v1.31h.023a2.261 2.261 0 0 1 2.285-1.454v1.082c-1.648 0-2.249.938-2.249 2.512v2.77h-1.022Z"
        data-name="Path 552" fill="#0096c2"></path>
      <path
        d="M142.681 39.264h1.238v.9h-1.238v3.86c0 .469.132.553.77.553h.469v.9h-.781c-1.058 0-1.478-.216-1.478-1.359v-3.955h-1.059v-.9h1.057V37.4h1.021Z"
        data-name="Path 553" fill="#0096c2"></path>
      <path d="M145.469 39.264h1.021v6.215h-1.021Zm1.021-1.117h-1.021v-1.251h1.021Z"
        data-name="Path 554" fill="#0096c2"></path>
      <path
        d="M148.439 39.264h.962v.914h.023a2.292 2.292 0 0 1 2.007-1.058 1.649 1.649 0 0 1 1.708 1.058 2.3 2.3 0 0 1 1.947-1.058c1.238 0 2.068.516 2.068 1.8v4.561h-1.022v-4.075c0-.77-.2-1.383-1.2-1.383a1.505 1.505 0 0 0-1.623 1.586v3.872h-1.023v-4.075c0-.806-.253-1.383-1.166-1.383a1.676 1.676 0 0 0-1.658 1.586v3.872h-1.022Z"
        data-name="Path 555" fill="#0096c2"></path>
      <path
        d="M163.369 41.781a1.788 1.788 0 0 0-1.791-1.755 1.77 1.77 0 0 0-1.779 1.755Zm.985 1.731a2.5 2.5 0 0 1-2.656 2.116c-1.984 0-2.921-1.371-2.981-3.269a2.992 2.992 0 0 1 2.921-3.234c2.2 0 2.873 2.055 2.813 3.558h-4.652a1.831 1.831 0 0 0 1.935 2.044 1.5 1.5 0 0 0 1.611-1.214Z"
        data-name="Path 556" fill="#0096c2"></path>
    </g>
    <g data-name="Group 119">
      <path
        d="M28.481 28.494a5.763 5.763 0 0 0 3.154-.605 2.149 2.149 0 0 0 1.015-1.978c0-1.675-1.033-2.441-3.261-2.441-.712 0-.909.144-.909.642Zm7.711 6.112h-1.744a1.919 1.919 0 0 1-1.607-.769c-1.236-1.73-3.362-4.719-3.362-4.719l-1 .036v3.51c0 1.283.232 1.514 1.6 1.6v.339h-4.93v-.339c1.336-.106 1.514-.32 1.514-1.8v-7.715c0-1.265-.179-1.461-1.514-1.6v-.339h4.917a5.493 5.493 0 0 1 3.831 1.193 2.825 2.825 0 0 1 .695 1.943 2.613 2.613 0 0 1-.909 2.049 4.545 4.545 0 0 1-2.317.927s1.64 2.3 3.274 4.507a1.61 1.61 0 0 0 1.55.837Z"
        data-name="Path 557" fill="#0d223c"></path>
      <path
        d="M22.792 21.412a4.705 4.705 0 0 0 3.218-4.019v-7.144h-.573a.778.778 0 0 1 0-1.555h.573v-.482a3.756 3.756 0 0 1 3.211-3.985V0a30.007 30.007 0 0 0 .272 60l-10.32-37.119s1.017-.4 3.619-1.473"
        data-name="Path 558" fill="#0096c2"></path>
      <path
        d="M30.824 0v4.224a3.759 3.759 0 0 1 3.225 3.989v.476h.573a.778.778 0 0 1 0 1.555h-.573v7.144a4.7 4.7 0 0 0 3.216 4.019 343.684 343.684 0 0 0 3.619 1.473L30.566 59.999a30.007 30.007 0 0 0 .258-60"
        data-name="Path 559" fill="#0d223c"></path>
    </g>
  </g>
</svg>
